#!OML:ASF H:\BabyWalks\Project 1\Capture day 1\Session 1\baby.ASF
:FULLY-SPECIFIED
:DEGREES
379
root 13.9894 17.8137 -6.89249 6.60726 26.0982 -0.504436
lowerback 22.6317 -1.41151 -3.84512
upperback 4.38144 -2.86678 -2.51972
thorax -7.75352 -1.26848 0.261381
lowerneck -4.02033 4.24925 5.86085
upperneck -0.957235 5.43905 -3.64596
head 0.661397 2.68477 -2.03769
rclavicle 1.27222e-014 4.29375e-014
rhumerus -59.8806 7.33305 -81.0337
rradius 39.0782
rwrist 9.39719
rhand -2.69744 -20.4625
rfingers 7.12502
rthumb 23.0043 -49.1097
lclavicle 1.27222e-014 4.29375e-014
lhumerus -32.2592 -10.6651 69.8692
lradius 78.8083
lwrist -3.54329
lhand -22.3159 6.81998
lfingers 7.12502
lthumb 4.10371 36.7602
rfemur -32.0338 4.56465 17.4322
rtibia 36.293
rfoot -15.2842 3.6103
rtoes -8.38318
lfemur -9.65333 -8.05865 -17.2856
ltibia 28.9251
lfoot -22.4952 -15.6378
ltoes 6.02903
380
root 14.04 17.8393 -6.72208 6.74969 26.4449 -0.496527
lowerback 22.4094 -1.45965 -3.73277
upperback 4.30935 -2.88018 -2.33356
thorax -7.71128 -1.27734 0.399035
lowerneck -4.04718 4.20051 5.85023
upperneck -0.722654 5.37613 -3.76359
head 0.741052 2.65324 -2.07333
rclavicle -2.78299e-014 6.52014e-014
rhumerus -60.4003 6.87875 -80.2006
rradius 38.3537
rwrist 9.53989
rhand -2.16025 -20.3918
rfingers 7.12502
rthumb 23.5197 -48.9739
lclavicle -2.78299e-014 6.52014e-014
lhumerus -32.2024 -11.4558 70.0702
lradius 80.2001
lwrist -3.65917
lhand -22.4614 6.48426
lfingers 7.12502
lthumb 3.96321 36.4272
rfemur -31.7087 4.96429 17.1796
rtibia 33.4863
rfoot -15.275 3.1037
rtoes -8.50444
lfemur -8.97429 -8.01184 -17.1602
ltibia 28.3309
lfoot -22.0283 -16.2071
ltoes 6.01115
381
root 14.0906 17.8615 -6.55088 6.86794 26.8261 -0.476302
lowerback 22.2064 -1.5131 -3.5865
upperback 4.23999 -2.8946 -2.15351
thorax -7.67793 -1.28723 0.511134
lowerneck -4.08759 4.14304 5.8573
upperneck -0.453095 5.30133 -3.90634
head 0.835146 2.61535 -2.12046
rclavicle -6.36111e-015 -2.38542e-015
rhumerus -60.9149 6.43353 -79.3902
rradius 37.6963
rwrist 9.66131
rhand -1.57601 -20.3041
rfingers 7.12502
rthumb 24.08 -48.8132
lclavicle -6.36111e-015 -2.38542e-015
lhumerus -32.2175 -12.2196 70.2917
lradius 81.4676
lwrist -3.77556
lhand -22.5375 6.19415
lfingers 7.12502
lthumb 3.88976 36.1384
rfemur -31.3279 5.46036 16.8605
rtibia 30.9515
rfoot -15.2211 2.43549
rtoes -8.51141
lfemur -8.33648 -7.94942 -17.0319
ltibia 27.8554
lfoot -21.5335 -16.8381
ltoes 5.9702
382
root 14.1411 17.8801 -6.37924 6.97122 27.2461 -0.424202
lowerback 22.0223 -1.57097 -3.42193
upperback 4.17623 -2.91279 -1.98611
thorax -7.64962 -1.29923 0.600206
lowerneck -4.13466 4.0742 5.87478
upperneck -0.167986 5.21174 -4.06292
head 0.93558 2.56968 -2.17464
rclavicle 6.36111e-015 -1.82882e-014
rhumerus -61.4166 5.99379 -78.6106
rradius 37.1009
rwrist 9.76777
rhand -0.929232 -20.2097
rfingers 7.12502
rthumb 24.7 -48.6353
lclavicle 6.36111e-015 -1.82882e-014
lhumerus -32.2983 -12.9423 70.5341
lradius 82.598
lwrist -3.82188
lhand -22.5649 5.94159
lfingers 7.12502
lthumb 3.86331 35.8863
rfemur -30.9068 6.02693 16.4694
rtibia 28.7488
rfoot -15.1022 1.5605
rtoes -8.31808
lfemur -7.7624 -7.87692 -16.9195
ltibia 27.5404
lfoot -21.0203 -17.5248
ltoes 5.8739
383
root 14.1912 17.8943 -6.20744 7.05232 27.707 -0.350718
lowerback 21.8602 -1.63616 -3.23785
upperback 4.11873 -2.93792 -1.82655
thorax -7.62713 -1.31481 0.67183
lowerneck -4.17437 3.99677 5.90704
upperneck 0.111336 5.11161 -4.24414
head 1.03385 2.51826 -2.24064
rclavicle -2.90226e-014 -1.19271e-014
rhumerus -61.9027 5.5825 -77.8798
rradius 36.5644
rwrist 9.85477
rhand -0.207816 -20.1189
rfingers 7.12502
rthumb 25.3913 -48.4481
lclavicle -2.90226e-014 -1.19271e-014
lhumerus -32.4588 -13.5974 70.8046
lradius 83.5875
lwrist -3.75128
lhand -22.5593 5.71656
lfingers 7.12502
lthumb 3.86866 35.6612
rfemur -30.4524 6.62913 16.0443
rtibia 26.9192
rfoot -14.9097 0.472845
rtoes -7.89969
lfemur -7.27581 -7.78455 -16.81
ltibia 27.4354
lfoot -20.4862 -18.2809
ltoes 5.76755
384
root 14.2403 17.9034 -6.0358 7.11773 28.2165 -0.250423
lowerback 21.7188 -1.70953 -3.04422
upperback 4.06693 -2.97294 -1.67167
thorax -7.60964 -1.33517 0.735897
lowerneck -4.20568 3.90809 5.94381
upperneck 0.379527 4.99791 -4.4463
head 1.12735 2.45957 -2.31563
rclavicle -3.57812e-014 3.10104e-014
rhumerus -62.373 5.20556 -77.2076
rradius 36.0867
rwrist 9.93325
rhand 0.596754 -20.0058
rfingers 7.12502
rthumb 26.1618 -48.2231
lclavicle -3.57812e-014 3.10104e-014
lhumerus -32.6998 -14.174 71.1094
lradius 84.4269
lwrist -3.52585
lhand -22.5233 5.51069
lfingers 7.12502
lthumb 3.90348 35.4547
rfemur -29.9694 7.19745 15.616
rtibia 25.4796
rfoot -14.6172 -0.762566
rtoes -7.27435
lfemur -6.90958 -7.66344 -16.704
ltibia 27.5907
lfoot -19.9302 -19.1179
ltoes 5.63595
385
root 14.2879 17.9061 -5.86464 7.1688 28.7737 -0.126035
lowerback 21.5958 -1.79004 -2.84611
upperback 4.02497 -3.0171 -1.52
thorax -7.59114 -1.35992 0.796556
lowerneck -4.23822 3.81056 5.9879
upperneck 0.62598 4.87304 -4.66916
head 1.21444 2.39471 -2.39993
rclavicle -2.42517e-014 -3.89618e-014
rhumerus -62.8162 4.86726 -76.6053
rradius 35.6608
rwrist 9.98482
rhand 1.43679 -19.8871
rfingers 7.12502
rthumb 26.9658 -47.9828
lclavicle -2.42517e-014 -3.89618e-014
lhumerus -33.0127 -14.6599 71.4448
lradius 85.1096
lwrist -3.14899
lhand -22.4585 5.3295
lfingers 7.12502
lthumb 3.96601 35.2723
rfemur -29.4555 7.65958 15.2284
rtibia 24.4201
rfoot -14.2141 -2.03872
rtoes -6.56811
lfemur -6.69305 -7.49937 -16.5942
ltibia 28.0526
lfoot -19.3597 -20.0431
ltoes 5.43824
